<mxfile host="app.diagrams.net" modified="2021-12-16T07:25:24.338Z" agent="5.0 (Macintosh; Intel Mac OS X 10_15_7) AppleWebKit/537.36 (KHTML, like Gecko) Chrome/96.0.4664.110 Safari/537.36" etag="tSuCA2nbnLwQLYLC_PsX" version="15.9.6" type="github" pages="4">
  <diagram name="第 0 页" id="7SCm7X1oim8M1oKMD6Wj">
    <mxGraphModel dx="946" dy="503" grid="1" gridSize="10" guides="1" tooltips="1" connect="1" arrows="1" fold="1" page="1" pageScale="1" pageWidth="850" pageHeight="1100" math="0" shadow="0">
      <root>
        <mxCell id="CPGcodSjH-JqmFzN9zXc-0" />
        <mxCell id="CPGcodSjH-JqmFzN9zXc-1" parent="CPGcodSjH-JqmFzN9zXc-0" />
        <mxCell id="CPGcodSjH-JqmFzN9zXc-2" value="cloud-service" style="shape=umlLifeline;perimeter=lifelinePerimeter;whiteSpace=wrap;html=1;container=1;collapsible=0;recursiveResize=0;outlineConnect=0;" parent="CPGcodSjH-JqmFzN9zXc-1" vertex="1">
          <mxGeometry x="170" y="25" width="60" height="735" as="geometry" />
        </mxCell>
        <mxCell id="CPGcodSjH-JqmFzN9zXc-3" value="" style="html=1;points=[];perimeter=orthogonalPerimeter;" parent="CPGcodSjH-JqmFzN9zXc-2" vertex="1">
          <mxGeometry x="25" y="70" width="10" height="150" as="geometry" />
        </mxCell>
        <mxCell id="CPGcodSjH-JqmFzN9zXc-4" value="" style="html=1;points=[];perimeter=orthogonalPerimeter;" parent="CPGcodSjH-JqmFzN9zXc-2" vertex="1">
          <mxGeometry x="25" y="635" width="10" height="80" as="geometry" />
        </mxCell>
        <mxCell id="CPGcodSjH-JqmFzN9zXc-5" value="channel-service" style="shape=umlLifeline;perimeter=lifelinePerimeter;whiteSpace=wrap;html=1;container=1;collapsible=0;recursiveResize=0;outlineConnect=0;" parent="CPGcodSjH-JqmFzN9zXc-1" vertex="1">
          <mxGeometry x="320" y="25" width="60" height="735" as="geometry" />
        </mxCell>
        <mxCell id="CPGcodSjH-JqmFzN9zXc-6" value="" style="html=1;points=[];perimeter=orthogonalPerimeter;" parent="CPGcodSjH-JqmFzN9zXc-5" vertex="1">
          <mxGeometry x="25" y="70" width="10" height="150" as="geometry" />
        </mxCell>
        <mxCell id="CPGcodSjH-JqmFzN9zXc-7" value="" style="html=1;points=[];perimeter=orthogonalPerimeter;" parent="CPGcodSjH-JqmFzN9zXc-5" vertex="1">
          <mxGeometry x="25" y="330" width="10" height="210" as="geometry" />
        </mxCell>
        <mxCell id="CPGcodSjH-JqmFzN9zXc-8" value="" style="html=1;points=[];perimeter=orthogonalPerimeter;" parent="CPGcodSjH-JqmFzN9zXc-5" vertex="1">
          <mxGeometry x="25" y="635" width="10" height="80" as="geometry" />
        </mxCell>
        <mxCell id="CPGcodSjH-JqmFzN9zXc-9" value="管控agent" style="shape=umlLifeline;perimeter=lifelinePerimeter;whiteSpace=wrap;html=1;container=1;collapsible=0;recursiveResize=0;outlineConnect=0;" parent="CPGcodSjH-JqmFzN9zXc-1" vertex="1">
          <mxGeometry x="460" y="25" width="60" height="735" as="geometry" />
        </mxCell>
        <mxCell id="CPGcodSjH-JqmFzN9zXc-10" value="" style="html=1;points=[];perimeter=orthogonalPerimeter;" parent="CPGcodSjH-JqmFzN9zXc-9" vertex="1">
          <mxGeometry x="25" y="140" width="10" height="60" as="geometry" />
        </mxCell>
        <mxCell id="CPGcodSjH-JqmFzN9zXc-11" value="" style="html=1;points=[];perimeter=orthogonalPerimeter;" parent="CPGcodSjH-JqmFzN9zXc-9" vertex="1">
          <mxGeometry x="25" y="240" width="10" height="150" as="geometry" />
        </mxCell>
        <mxCell id="CPGcodSjH-JqmFzN9zXc-12" value="" style="html=1;points=[];perimeter=orthogonalPerimeter;" parent="CPGcodSjH-JqmFzN9zXc-9" vertex="1">
          <mxGeometry x="25" y="410" width="10" height="60" as="geometry" />
        </mxCell>
        <mxCell id="CPGcodSjH-JqmFzN9zXc-13" value="" style="html=1;points=[];perimeter=orthogonalPerimeter;" parent="CPGcodSjH-JqmFzN9zXc-9" vertex="1">
          <mxGeometry x="25" y="660" width="10" height="35" as="geometry" />
        </mxCell>
        <mxCell id="CPGcodSjH-JqmFzN9zXc-14" value="cyberRT" style="shape=umlLifeline;perimeter=lifelinePerimeter;whiteSpace=wrap;html=1;container=1;collapsible=0;recursiveResize=0;outlineConnect=0;" parent="CPGcodSjH-JqmFzN9zXc-1" vertex="1">
          <mxGeometry x="625" y="25" width="60" height="735" as="geometry" />
        </mxCell>
        <mxCell id="CPGcodSjH-JqmFzN9zXc-15" value="" style="html=1;points=[];perimeter=orthogonalPerimeter;" parent="CPGcodSjH-JqmFzN9zXc-14" vertex="1">
          <mxGeometry x="25" y="140" width="10" height="60" as="geometry" />
        </mxCell>
        <mxCell id="CPGcodSjH-JqmFzN9zXc-16" value="" style="html=1;points=[];perimeter=orthogonalPerimeter;" parent="CPGcodSjH-JqmFzN9zXc-14" vertex="1">
          <mxGeometry x="25" y="240" width="10" height="80" as="geometry" />
        </mxCell>
        <mxCell id="CPGcodSjH-JqmFzN9zXc-17" value="Redis" style="shape=umlLifeline;perimeter=lifelinePerimeter;whiteSpace=wrap;html=1;container=1;collapsible=0;recursiveResize=0;outlineConnect=0;" parent="CPGcodSjH-JqmFzN9zXc-1" vertex="1">
          <mxGeometry x="760" y="20" width="60" height="740" as="geometry" />
        </mxCell>
        <mxCell id="CPGcodSjH-JqmFzN9zXc-18" value="" style="html=1;points=[];perimeter=orthogonalPerimeter;" parent="CPGcodSjH-JqmFzN9zXc-17" vertex="1">
          <mxGeometry x="25" y="70" width="10" height="50" as="geometry" />
        </mxCell>
        <mxCell id="CPGcodSjH-JqmFzN9zXc-19" value="rpc调用" style="html=1;verticalAlign=bottom;endArrow=block;entryX=0.068;entryY=0.065;rounded=0;entryDx=0;entryDy=0;entryPerimeter=0;" parent="CPGcodSjH-JqmFzN9zXc-1" target="CPGcodSjH-JqmFzN9zXc-6" edge="1">
          <mxGeometry relative="1" as="geometry">
            <mxPoint x="200" y="106" as="sourcePoint" />
          </mxGeometry>
        </mxCell>
        <mxCell id="CPGcodSjH-JqmFzN9zXc-20" value="return" style="html=1;verticalAlign=bottom;endArrow=open;dashed=1;endSize=8;exitX=-0.037;exitY=0.907;rounded=0;exitDx=0;exitDy=0;exitPerimeter=0;" parent="CPGcodSjH-JqmFzN9zXc-1" source="CPGcodSjH-JqmFzN9zXc-6" target="CPGcodSjH-JqmFzN9zXc-2" edge="1">
          <mxGeometry relative="1" as="geometry">
            <mxPoint x="100" y="166" as="targetPoint" />
          </mxGeometry>
        </mxCell>
        <mxCell id="CPGcodSjH-JqmFzN9zXc-21" value="websocket(包装同步)" style="html=1;verticalAlign=bottom;endArrow=block;entryX=-0.353;entryY=0.153;rounded=0;entryDx=0;entryDy=0;entryPerimeter=0;" parent="CPGcodSjH-JqmFzN9zXc-1" source="CPGcodSjH-JqmFzN9zXc-5" target="CPGcodSjH-JqmFzN9zXc-10" edge="1">
          <mxGeometry relative="1" as="geometry">
            <mxPoint x="240" y="100" as="sourcePoint" />
          </mxGeometry>
        </mxCell>
        <mxCell id="CPGcodSjH-JqmFzN9zXc-22" value="return" style="html=1;verticalAlign=bottom;endArrow=open;dashed=1;endSize=8;exitX=0.068;exitY=0.971;rounded=0;exitDx=0;exitDy=0;exitPerimeter=0;" parent="CPGcodSjH-JqmFzN9zXc-1" source="CPGcodSjH-JqmFzN9zXc-10" target="CPGcodSjH-JqmFzN9zXc-5" edge="1">
          <mxGeometry relative="1" as="geometry">
            <mxPoint x="240" y="176" as="targetPoint" />
          </mxGeometry>
        </mxCell>
        <mxCell id="CPGcodSjH-JqmFzN9zXc-23" value="sdk调用" style="html=1;verticalAlign=bottom;endArrow=block;entryX=-0.432;entryY=0.398;rounded=0;entryDx=0;entryDy=0;entryPerimeter=0;" parent="CPGcodSjH-JqmFzN9zXc-1" source="CPGcodSjH-JqmFzN9zXc-9" target="CPGcodSjH-JqmFzN9zXc-15" edge="1">
          <mxGeometry relative="1" as="geometry">
            <mxPoint x="500" y="185" as="sourcePoint" />
          </mxGeometry>
        </mxCell>
        <mxCell id="CPGcodSjH-JqmFzN9zXc-24" value="return" style="html=1;verticalAlign=bottom;endArrow=open;dashed=1;endSize=8;rounded=0;" parent="CPGcodSjH-JqmFzN9zXc-1" target="CPGcodSjH-JqmFzN9zXc-9" edge="1">
          <mxGeometry relative="1" as="geometry">
            <mxPoint x="410" y="186" as="targetPoint" />
            <mxPoint x="655" y="210" as="sourcePoint" />
          </mxGeometry>
        </mxCell>
        <mxCell id="CPGcodSjH-JqmFzN9zXc-25" value="轮询仿真结果 &amp;amp; 回放 [sdk调用]" style="html=1;verticalAlign=bottom;endArrow=block;entryX=0;entryY=0;rounded=0;" parent="CPGcodSjH-JqmFzN9zXc-1" source="CPGcodSjH-JqmFzN9zXc-9" target="CPGcodSjH-JqmFzN9zXc-16" edge="1">
          <mxGeometry relative="1" as="geometry">
            <mxPoint x="405" y="260" as="sourcePoint" />
          </mxGeometry>
        </mxCell>
        <mxCell id="CPGcodSjH-JqmFzN9zXc-26" value="返回仿真结果&amp;amp;回放" style="html=1;verticalAlign=bottom;endArrow=open;dashed=1;endSize=8;exitX=0;exitY=0.95;rounded=0;" parent="CPGcodSjH-JqmFzN9zXc-1" source="CPGcodSjH-JqmFzN9zXc-16" target="CPGcodSjH-JqmFzN9zXc-9" edge="1">
          <mxGeometry relative="1" as="geometry">
            <mxPoint x="405" y="336" as="targetPoint" />
          </mxGeometry>
        </mxCell>
        <mxCell id="CPGcodSjH-JqmFzN9zXc-27" value="上报仿真结果&amp;amp;回放" style="html=1;verticalAlign=bottom;endArrow=block;entryX=1;entryY=0;rounded=0;endSize=6;startSize=6;" parent="CPGcodSjH-JqmFzN9zXc-1" target="CPGcodSjH-JqmFzN9zXc-7" edge="1">
          <mxGeometry relative="1" as="geometry">
            <mxPoint x="480" y="355" as="sourcePoint" />
          </mxGeometry>
        </mxCell>
        <mxCell id="CPGcodSjH-JqmFzN9zXc-28" value="return" style="html=1;verticalAlign=bottom;endArrow=open;dashed=1;endSize=8;rounded=0;entryX=0.08;entryY=0.888;entryDx=0;entryDy=0;entryPerimeter=0;" parent="CPGcodSjH-JqmFzN9zXc-1" target="CPGcodSjH-JqmFzN9zXc-11" edge="1">
          <mxGeometry relative="1" as="geometry">
            <mxPoint x="590" y="407" as="targetPoint" />
            <mxPoint x="360" y="398" as="sourcePoint" />
            <Array as="points" />
          </mxGeometry>
        </mxCell>
        <mxCell id="CPGcodSjH-JqmFzN9zXc-29" value="订阅相应topic" style="html=1;verticalAlign=bottom;endArrow=block;entryX=0;entryY=0;rounded=0;" parent="CPGcodSjH-JqmFzN9zXc-1" source="CPGcodSjH-JqmFzN9zXc-2" edge="1">
          <mxGeometry x="0.1628" relative="1" as="geometry">
            <mxPoint x="555" y="480" as="sourcePoint" />
            <mxPoint x="905" y="575" as="targetPoint" />
            <mxPoint as="offset" />
          </mxGeometry>
        </mxCell>
        <mxCell id="CPGcodSjH-JqmFzN9zXc-30" value="return" style="html=1;verticalAlign=bottom;endArrow=open;dashed=1;endSize=8;exitX=-0.247;exitY=0.964;rounded=0;exitDx=0;exitDy=0;exitPerimeter=0;" parent="CPGcodSjH-JqmFzN9zXc-1" target="CPGcodSjH-JqmFzN9zXc-2" edge="1">
          <mxGeometry relative="1" as="geometry">
            <mxPoint x="555" y="556" as="targetPoint" />
            <mxPoint x="902.5299999999997" y="618.3800000000001" as="sourcePoint" />
          </mxGeometry>
        </mxCell>
        <mxCell id="CPGcodSjH-JqmFzN9zXc-31" value="return" style="html=1;verticalAlign=bottom;endArrow=open;dashed=1;endSize=8;rounded=0;" parent="CPGcodSjH-JqmFzN9zXc-1" target="CPGcodSjH-JqmFzN9zXc-5" edge="1">
          <mxGeometry relative="1" as="geometry">
            <mxPoint x="180" y="550" as="targetPoint" />
            <mxPoint x="910" y="540" as="sourcePoint" />
          </mxGeometry>
        </mxCell>
        <mxCell id="CPGcodSjH-JqmFzN9zXc-32" value="仿真结果回调" style="html=1;verticalAlign=bottom;endArrow=block;entryX=1;entryY=0;rounded=0;" parent="CPGcodSjH-JqmFzN9zXc-1" source="CPGcodSjH-JqmFzN9zXc-14" target="CPGcodSjH-JqmFzN9zXc-12" edge="1">
          <mxGeometry relative="1" as="geometry">
            <mxPoint x="385" y="430" as="sourcePoint" />
          </mxGeometry>
        </mxCell>
        <mxCell id="CPGcodSjH-JqmFzN9zXc-33" value="return" style="html=1;verticalAlign=bottom;endArrow=open;dashed=1;endSize=8;rounded=0;exitX=1.04;exitY=0.24;exitDx=0;exitDy=0;exitPerimeter=0;" parent="CPGcodSjH-JqmFzN9zXc-1" source="CPGcodSjH-JqmFzN9zXc-12" target="CPGcodSjH-JqmFzN9zXc-14" edge="1">
          <mxGeometry relative="1" as="geometry">
            <mxPoint x="440" y="450" as="targetPoint" />
          </mxGeometry>
        </mxCell>
        <mxCell id="CPGcodSjH-JqmFzN9zXc-34" value="主动上报仿真结果" style="html=1;verticalAlign=bottom;endArrow=block;rounded=0;exitX=0.08;exitY=0.507;exitDx=0;exitDy=0;exitPerimeter=0;entryX=0.911;entryY=0.527;entryDx=0;entryDy=0;entryPerimeter=0;" parent="CPGcodSjH-JqmFzN9zXc-1" source="CPGcodSjH-JqmFzN9zXc-12" target="CPGcodSjH-JqmFzN9zXc-7" edge="1">
          <mxGeometry relative="1" as="geometry">
            <mxPoint x="310" y="460" as="sourcePoint" />
            <mxPoint x="360" y="465" as="targetPoint" />
          </mxGeometry>
        </mxCell>
        <mxCell id="CPGcodSjH-JqmFzN9zXc-35" value="return" style="html=1;verticalAlign=bottom;endArrow=open;dashed=1;endSize=8;rounded=0;" parent="CPGcodSjH-JqmFzN9zXc-1" target="CPGcodSjH-JqmFzN9zXc-9" edge="1">
          <mxGeometry relative="1" as="geometry">
            <mxPoint x="245" y="487" as="targetPoint" />
            <mxPoint x="360" y="478" as="sourcePoint" />
          </mxGeometry>
        </mxCell>
        <mxCell id="CPGcodSjH-JqmFzN9zXc-36" value="biz-service" style="shape=umlLifeline;perimeter=lifelinePerimeter;whiteSpace=wrap;html=1;container=1;collapsible=0;recursiveResize=0;outlineConnect=0;" parent="CPGcodSjH-JqmFzN9zXc-1" vertex="1">
          <mxGeometry x="30" y="25" width="60" height="725" as="geometry" />
        </mxCell>
        <mxCell id="CPGcodSjH-JqmFzN9zXc-37" value="" style="html=1;points=[];perimeter=orthogonalPerimeter;" parent="CPGcodSjH-JqmFzN9zXc-36" vertex="1">
          <mxGeometry x="25" y="70" width="10" height="150" as="geometry" />
        </mxCell>
        <mxCell id="CPGcodSjH-JqmFzN9zXc-38" value="下发仿真/评测任务" style="html=1;verticalAlign=bottom;endArrow=block;entryX=0;entryY=0;rounded=0;" parent="CPGcodSjH-JqmFzN9zXc-1" edge="1">
          <mxGeometry x="-0.0306" relative="1" as="geometry">
            <mxPoint x="60" y="100" as="sourcePoint" />
            <mxPoint x="195.55" y="100.00000000000011" as="targetPoint" />
            <mxPoint as="offset" />
          </mxGeometry>
        </mxCell>
        <mxCell id="CPGcodSjH-JqmFzN9zXc-39" value="return" style="html=1;verticalAlign=bottom;endArrow=open;dashed=1;endSize=8;rounded=0;" parent="CPGcodSjH-JqmFzN9zXc-1" target="CPGcodSjH-JqmFzN9zXc-36" edge="1">
          <mxGeometry relative="1" as="geometry">
            <mxPoint x="190" y="240" as="sourcePoint" />
            <mxPoint x="110" y="230" as="targetPoint" />
          </mxGeometry>
        </mxCell>
        <mxCell id="CPGcodSjH-JqmFzN9zXc-40" value="MQ" style="shape=umlLifeline;perimeter=lifelinePerimeter;whiteSpace=wrap;html=1;container=1;collapsible=0;recursiveResize=0;outlineConnect=0;" parent="CPGcodSjH-JqmFzN9zXc-1" vertex="1">
          <mxGeometry x="880" y="20" width="60" height="740" as="geometry" />
        </mxCell>
        <mxCell id="CPGcodSjH-JqmFzN9zXc-41" value="" style="html=1;points=[];perimeter=orthogonalPerimeter;" parent="CPGcodSjH-JqmFzN9zXc-40" vertex="1">
          <mxGeometry x="25" y="470" width="10" height="150" as="geometry" />
        </mxCell>
        <mxCell id="CPGcodSjH-JqmFzN9zXc-42" value="return" style="html=1;verticalAlign=bottom;endArrow=open;dashed=1;endSize=8;exitX=0.068;exitY=0.925;rounded=0;exitDx=0;exitDy=0;exitPerimeter=0;" parent="CPGcodSjH-JqmFzN9zXc-1" source="CPGcodSjH-JqmFzN9zXc-18" target="CPGcodSjH-JqmFzN9zXc-5" edge="1">
          <mxGeometry relative="1" as="geometry">
            <mxPoint x="685" y="236" as="targetPoint" />
          </mxGeometry>
        </mxCell>
        <mxCell id="CPGcodSjH-JqmFzN9zXc-43" value="查询channel" style="html=1;verticalAlign=bottom;endArrow=block;rounded=0;entryX=0.068;entryY=0.463;entryDx=0;entryDy=0;entryPerimeter=0;exitX=0.911;exitY=0.121;exitDx=0;exitDy=0;exitPerimeter=0;" parent="CPGcodSjH-JqmFzN9zXc-1" source="CPGcodSjH-JqmFzN9zXc-6" target="CPGcodSjH-JqmFzN9zXc-18" edge="1">
          <mxGeometry relative="1" as="geometry">
            <mxPoint x="360" y="106" as="sourcePoint" />
            <mxPoint x="790" y="100" as="targetPoint" />
          </mxGeometry>
        </mxCell>
        <mxCell id="CPGcodSjH-JqmFzN9zXc-44" value="发送mq消息&amp;nbsp; &amp;nbsp;仿真/评测报告 &amp;amp; 回放" style="html=1;verticalAlign=bottom;endArrow=block;rounded=0;startSize=6;endSize=6;exitX=1.016;exitY=0.813;exitDx=0;exitDy=0;exitPerimeter=0;" parent="CPGcodSjH-JqmFzN9zXc-1" source="CPGcodSjH-JqmFzN9zXc-7" target="CPGcodSjH-JqmFzN9zXc-40" edge="1">
          <mxGeometry width="80" relative="1" as="geometry">
            <mxPoint x="570" y="420" as="sourcePoint" />
            <mxPoint x="650" y="420" as="targetPoint" />
          </mxGeometry>
        </mxCell>
        <mxCell id="CPGcodSjH-JqmFzN9zXc-45" value="websocket(包装同步)" style="html=1;verticalAlign=bottom;endArrow=block;entryX=0;entryY=0;rounded=0;startSize=6;endSize=6;" parent="CPGcodSjH-JqmFzN9zXc-1" source="CPGcodSjH-JqmFzN9zXc-5" target="CPGcodSjH-JqmFzN9zXc-13" edge="1">
          <mxGeometry relative="1" as="geometry">
            <mxPoint x="370" y="600" as="sourcePoint" />
          </mxGeometry>
        </mxCell>
        <mxCell id="CPGcodSjH-JqmFzN9zXc-46" value="return" style="html=1;verticalAlign=bottom;endArrow=open;dashed=1;endSize=8;exitX=0;exitY=0.95;rounded=0;" parent="CPGcodSjH-JqmFzN9zXc-1" source="CPGcodSjH-JqmFzN9zXc-13" target="CPGcodSjH-JqmFzN9zXc-5" edge="1">
          <mxGeometry relative="1" as="geometry">
            <mxPoint x="370" y="676" as="targetPoint" />
          </mxGeometry>
        </mxCell>
        <mxCell id="CPGcodSjH-JqmFzN9zXc-47" value="轮询任务状态" style="html=1;verticalAlign=bottom;endArrow=block;entryX=0;entryY=0;rounded=0;startSize=6;endSize=6;" parent="CPGcodSjH-JqmFzN9zXc-1" source="CPGcodSjH-JqmFzN9zXc-2" target="CPGcodSjH-JqmFzN9zXc-8" edge="1">
          <mxGeometry relative="1" as="geometry">
            <mxPoint x="370" y="550" as="sourcePoint" />
          </mxGeometry>
        </mxCell>
        <mxCell id="CPGcodSjH-JqmFzN9zXc-48" value="return" style="html=1;verticalAlign=bottom;endArrow=open;dashed=1;endSize=8;exitX=0;exitY=0.95;rounded=0;" parent="CPGcodSjH-JqmFzN9zXc-1" source="CPGcodSjH-JqmFzN9zXc-8" target="CPGcodSjH-JqmFzN9zXc-2" edge="1">
          <mxGeometry relative="1" as="geometry">
            <mxPoint x="370" y="626" as="targetPoint" />
          </mxGeometry>
        </mxCell>
      </root>
    </mxGraphModel>
  </diagram>
  <diagram id="y43DfxvxHkq96aOq3xMm" name="第 1 页">
    <mxGraphModel dx="946" dy="503" grid="1" gridSize="10" guides="1" tooltips="1" connect="1" arrows="1" fold="1" page="1" pageScale="1" pageWidth="850" pageHeight="1100" math="0" shadow="0">
      <root>
        <mxCell id="0" />
        <mxCell id="1" parent="0" />
        <mxCell id="WShSjZ7iAAt_4kcY2VJ5-2" value="cloud-service" style="shape=umlLifeline;perimeter=lifelinePerimeter;whiteSpace=wrap;html=1;container=1;collapsible=0;recursiveResize=0;outlineConnect=0;" parent="1" vertex="1">
          <mxGeometry x="170" y="25" width="60" height="735" as="geometry" />
        </mxCell>
        <mxCell id="WShSjZ7iAAt_4kcY2VJ5-31" value="" style="html=1;points=[];perimeter=orthogonalPerimeter;" parent="WShSjZ7iAAt_4kcY2VJ5-2" vertex="1">
          <mxGeometry x="25" y="70" width="10" height="150" as="geometry" />
        </mxCell>
        <mxCell id="LzbOUSj-QeAD0FJS8F---11" value="" style="html=1;points=[];perimeter=orthogonalPerimeter;" parent="WShSjZ7iAAt_4kcY2VJ5-2" vertex="1">
          <mxGeometry x="25" y="635" width="10" height="80" as="geometry" />
        </mxCell>
        <mxCell id="WShSjZ7iAAt_4kcY2VJ5-9" value="channel-service" style="shape=umlLifeline;perimeter=lifelinePerimeter;whiteSpace=wrap;html=1;container=1;collapsible=0;recursiveResize=0;outlineConnect=0;" parent="1" vertex="1">
          <mxGeometry x="320" y="25" width="60" height="735" as="geometry" />
        </mxCell>
        <mxCell id="WShSjZ7iAAt_4kcY2VJ5-17" value="" style="html=1;points=[];perimeter=orthogonalPerimeter;" parent="WShSjZ7iAAt_4kcY2VJ5-9" vertex="1">
          <mxGeometry x="25" y="70" width="10" height="150" as="geometry" />
        </mxCell>
        <mxCell id="WShSjZ7iAAt_4kcY2VJ5-34" value="" style="html=1;points=[];perimeter=orthogonalPerimeter;" parent="WShSjZ7iAAt_4kcY2VJ5-9" vertex="1">
          <mxGeometry x="25" y="330" width="10" height="210" as="geometry" />
        </mxCell>
        <mxCell id="LzbOUSj-QeAD0FJS8F---8" value="" style="html=1;points=[];perimeter=orthogonalPerimeter;" parent="WShSjZ7iAAt_4kcY2VJ5-9" vertex="1">
          <mxGeometry x="25" y="635" width="10" height="80" as="geometry" />
        </mxCell>
        <mxCell id="WShSjZ7iAAt_4kcY2VJ5-11" value="管控agent" style="shape=umlLifeline;perimeter=lifelinePerimeter;whiteSpace=wrap;html=1;container=1;collapsible=0;recursiveResize=0;outlineConnect=0;" parent="1" vertex="1">
          <mxGeometry x="460" y="25" width="60" height="735" as="geometry" />
        </mxCell>
        <mxCell id="WShSjZ7iAAt_4kcY2VJ5-22" value="" style="html=1;points=[];perimeter=orthogonalPerimeter;" parent="WShSjZ7iAAt_4kcY2VJ5-11" vertex="1">
          <mxGeometry x="25" y="140" width="10" height="60" as="geometry" />
        </mxCell>
        <mxCell id="WShSjZ7iAAt_4kcY2VJ5-32" value="" style="html=1;points=[];perimeter=orthogonalPerimeter;" parent="WShSjZ7iAAt_4kcY2VJ5-11" vertex="1">
          <mxGeometry x="25" y="240" width="10" height="150" as="geometry" />
        </mxCell>
        <mxCell id="LzbOUSj-QeAD0FJS8F---4" value="" style="html=1;points=[];perimeter=orthogonalPerimeter;" parent="WShSjZ7iAAt_4kcY2VJ5-11" vertex="1">
          <mxGeometry x="25" y="660" width="10" height="35" as="geometry" />
        </mxCell>
        <mxCell id="WShSjZ7iAAt_4kcY2VJ5-12" value="agent" style="shape=umlLifeline;perimeter=lifelinePerimeter;whiteSpace=wrap;html=1;container=1;collapsible=0;recursiveResize=0;outlineConnect=0;" parent="1" vertex="1">
          <mxGeometry x="625" y="25" width="60" height="735" as="geometry" />
        </mxCell>
        <mxCell id="WShSjZ7iAAt_4kcY2VJ5-25" value="" style="html=1;points=[];perimeter=orthogonalPerimeter;" parent="WShSjZ7iAAt_4kcY2VJ5-12" vertex="1">
          <mxGeometry x="25" y="140" width="10" height="60" as="geometry" />
        </mxCell>
        <mxCell id="WShSjZ7iAAt_4kcY2VJ5-28" value="" style="html=1;points=[];perimeter=orthogonalPerimeter;" parent="WShSjZ7iAAt_4kcY2VJ5-12" vertex="1">
          <mxGeometry x="25" y="240" width="10" height="80" as="geometry" />
        </mxCell>
        <mxCell id="WShSjZ7iAAt_4kcY2VJ5-14" value="Redis" style="shape=umlLifeline;perimeter=lifelinePerimeter;whiteSpace=wrap;html=1;container=1;collapsible=0;recursiveResize=0;outlineConnect=0;" parent="1" vertex="1">
          <mxGeometry x="760" y="20" width="60" height="740" as="geometry" />
        </mxCell>
        <mxCell id="WShSjZ7iAAt_4kcY2VJ5-66" value="" style="html=1;points=[];perimeter=orthogonalPerimeter;" parent="WShSjZ7iAAt_4kcY2VJ5-14" vertex="1">
          <mxGeometry x="25" y="70" width="10" height="50" as="geometry" />
        </mxCell>
        <mxCell id="WShSjZ7iAAt_4kcY2VJ5-18" value="rpc调用" style="html=1;verticalAlign=bottom;endArrow=block;entryX=0.068;entryY=0.065;rounded=0;entryDx=0;entryDy=0;entryPerimeter=0;" parent="1" target="WShSjZ7iAAt_4kcY2VJ5-17" edge="1">
          <mxGeometry relative="1" as="geometry">
            <mxPoint x="200" y="106" as="sourcePoint" />
          </mxGeometry>
        </mxCell>
        <mxCell id="WShSjZ7iAAt_4kcY2VJ5-19" value="return" style="html=1;verticalAlign=bottom;endArrow=open;dashed=1;endSize=8;exitX=-0.037;exitY=0.907;rounded=0;exitDx=0;exitDy=0;exitPerimeter=0;" parent="1" source="WShSjZ7iAAt_4kcY2VJ5-17" target="WShSjZ7iAAt_4kcY2VJ5-2" edge="1">
          <mxGeometry relative="1" as="geometry">
            <mxPoint x="100" y="166" as="targetPoint" />
          </mxGeometry>
        </mxCell>
        <mxCell id="WShSjZ7iAAt_4kcY2VJ5-23" value="websocket(包装同步)" style="html=1;verticalAlign=bottom;endArrow=block;entryX=-0.353;entryY=0.153;rounded=0;entryDx=0;entryDy=0;entryPerimeter=0;" parent="1" source="WShSjZ7iAAt_4kcY2VJ5-9" target="WShSjZ7iAAt_4kcY2VJ5-22" edge="1">
          <mxGeometry relative="1" as="geometry">
            <mxPoint x="240" y="100" as="sourcePoint" />
          </mxGeometry>
        </mxCell>
        <mxCell id="WShSjZ7iAAt_4kcY2VJ5-24" value="return" style="html=1;verticalAlign=bottom;endArrow=open;dashed=1;endSize=8;exitX=0.068;exitY=0.971;rounded=0;exitDx=0;exitDy=0;exitPerimeter=0;" parent="1" source="WShSjZ7iAAt_4kcY2VJ5-22" target="WShSjZ7iAAt_4kcY2VJ5-9" edge="1">
          <mxGeometry relative="1" as="geometry">
            <mxPoint x="240" y="176" as="targetPoint" />
          </mxGeometry>
        </mxCell>
        <mxCell id="WShSjZ7iAAt_4kcY2VJ5-26" value="http调用api接口" style="html=1;verticalAlign=bottom;endArrow=block;entryX=-0.432;entryY=0.398;rounded=0;entryDx=0;entryDy=0;entryPerimeter=0;" parent="1" source="WShSjZ7iAAt_4kcY2VJ5-11" target="WShSjZ7iAAt_4kcY2VJ5-25" edge="1">
          <mxGeometry relative="1" as="geometry">
            <mxPoint x="500" y="185" as="sourcePoint" />
          </mxGeometry>
        </mxCell>
        <mxCell id="WShSjZ7iAAt_4kcY2VJ5-27" value="return" style="html=1;verticalAlign=bottom;endArrow=open;dashed=1;endSize=8;rounded=0;" parent="1" target="WShSjZ7iAAt_4kcY2VJ5-11" edge="1">
          <mxGeometry relative="1" as="geometry">
            <mxPoint x="410" y="186" as="targetPoint" />
            <mxPoint x="655" y="210" as="sourcePoint" />
          </mxGeometry>
        </mxCell>
        <mxCell id="WShSjZ7iAAt_4kcY2VJ5-29" value="轮询任务结果 &amp;amp;任务状态" style="html=1;verticalAlign=bottom;endArrow=block;entryX=0;entryY=0;rounded=0;" parent="1" source="WShSjZ7iAAt_4kcY2VJ5-11" target="WShSjZ7iAAt_4kcY2VJ5-28" edge="1">
          <mxGeometry relative="1" as="geometry">
            <mxPoint x="405" y="260" as="sourcePoint" />
          </mxGeometry>
        </mxCell>
        <mxCell id="WShSjZ7iAAt_4kcY2VJ5-30" value="return" style="html=1;verticalAlign=bottom;endArrow=open;dashed=1;endSize=8;exitX=0;exitY=0.95;rounded=0;" parent="1" source="WShSjZ7iAAt_4kcY2VJ5-28" target="WShSjZ7iAAt_4kcY2VJ5-11" edge="1">
          <mxGeometry relative="1" as="geometry">
            <mxPoint x="405" y="336" as="targetPoint" />
          </mxGeometry>
        </mxCell>
        <mxCell id="WShSjZ7iAAt_4kcY2VJ5-35" value="上报任务结果" style="html=1;verticalAlign=bottom;endArrow=block;entryX=1;entryY=0;rounded=0;endSize=6;startSize=6;" parent="1" target="WShSjZ7iAAt_4kcY2VJ5-34" edge="1">
          <mxGeometry relative="1" as="geometry">
            <mxPoint x="480" y="355" as="sourcePoint" />
          </mxGeometry>
        </mxCell>
        <mxCell id="WShSjZ7iAAt_4kcY2VJ5-36" value="return" style="html=1;verticalAlign=bottom;endArrow=open;dashed=1;endSize=8;rounded=0;entryX=0.08;entryY=0.888;entryDx=0;entryDy=0;entryPerimeter=0;" parent="1" target="WShSjZ7iAAt_4kcY2VJ5-32" edge="1">
          <mxGeometry relative="1" as="geometry">
            <mxPoint x="590" y="407" as="targetPoint" />
            <mxPoint x="360" y="398" as="sourcePoint" />
            <Array as="points" />
          </mxGeometry>
        </mxCell>
        <mxCell id="WShSjZ7iAAt_4kcY2VJ5-43" value="订阅相应topic" style="html=1;verticalAlign=bottom;endArrow=block;entryX=0;entryY=0;rounded=0;" parent="1" source="WShSjZ7iAAt_4kcY2VJ5-2" edge="1">
          <mxGeometry x="0.1628" relative="1" as="geometry">
            <mxPoint x="555" y="480" as="sourcePoint" />
            <mxPoint x="905" y="575" as="targetPoint" />
            <mxPoint as="offset" />
          </mxGeometry>
        </mxCell>
        <mxCell id="WShSjZ7iAAt_4kcY2VJ5-44" value="return" style="html=1;verticalAlign=bottom;endArrow=open;dashed=1;endSize=8;exitX=-0.247;exitY=0.964;rounded=0;exitDx=0;exitDy=0;exitPerimeter=0;" parent="1" target="WShSjZ7iAAt_4kcY2VJ5-2" edge="1">
          <mxGeometry relative="1" as="geometry">
            <mxPoint x="555" y="556" as="targetPoint" />
            <mxPoint x="902.5299999999997" y="618.3800000000001" as="sourcePoint" />
          </mxGeometry>
        </mxCell>
        <mxCell id="WShSjZ7iAAt_4kcY2VJ5-45" value="return" style="html=1;verticalAlign=bottom;endArrow=open;dashed=1;endSize=8;rounded=0;" parent="1" target="WShSjZ7iAAt_4kcY2VJ5-9" edge="1">
          <mxGeometry relative="1" as="geometry">
            <mxPoint x="180" y="550" as="targetPoint" />
            <mxPoint x="910" y="540" as="sourcePoint" />
          </mxGeometry>
        </mxCell>
        <mxCell id="WShSjZ7iAAt_4kcY2VJ5-57" value="biz-service" style="shape=umlLifeline;perimeter=lifelinePerimeter;whiteSpace=wrap;html=1;container=1;collapsible=0;recursiveResize=0;outlineConnect=0;" parent="1" vertex="1">
          <mxGeometry x="30" y="25" width="60" height="725" as="geometry" />
        </mxCell>
        <mxCell id="WShSjZ7iAAt_4kcY2VJ5-58" value="" style="html=1;points=[];perimeter=orthogonalPerimeter;" parent="WShSjZ7iAAt_4kcY2VJ5-57" vertex="1">
          <mxGeometry x="25" y="70" width="10" height="150" as="geometry" />
        </mxCell>
        <mxCell id="WShSjZ7iAAt_4kcY2VJ5-59" value="下发仿真/评测任务" style="html=1;verticalAlign=bottom;endArrow=block;entryX=0;entryY=0;rounded=0;" parent="1" edge="1">
          <mxGeometry x="-0.0306" relative="1" as="geometry">
            <mxPoint x="60" y="100" as="sourcePoint" />
            <mxPoint x="195.55" y="100.00000000000011" as="targetPoint" />
            <mxPoint as="offset" />
          </mxGeometry>
        </mxCell>
        <mxCell id="WShSjZ7iAAt_4kcY2VJ5-60" value="return" style="html=1;verticalAlign=bottom;endArrow=open;dashed=1;endSize=8;rounded=0;" parent="1" target="WShSjZ7iAAt_4kcY2VJ5-57" edge="1">
          <mxGeometry relative="1" as="geometry">
            <mxPoint x="190" y="240" as="sourcePoint" />
            <mxPoint x="110" y="230" as="targetPoint" />
          </mxGeometry>
        </mxCell>
        <mxCell id="WShSjZ7iAAt_4kcY2VJ5-63" value="MQ" style="shape=umlLifeline;perimeter=lifelinePerimeter;whiteSpace=wrap;html=1;container=1;collapsible=0;recursiveResize=0;outlineConnect=0;" parent="1" vertex="1">
          <mxGeometry x="880" y="20" width="60" height="740" as="geometry" />
        </mxCell>
        <mxCell id="WShSjZ7iAAt_4kcY2VJ5-64" value="" style="html=1;points=[];perimeter=orthogonalPerimeter;" parent="WShSjZ7iAAt_4kcY2VJ5-63" vertex="1">
          <mxGeometry x="25" y="470" width="10" height="150" as="geometry" />
        </mxCell>
        <mxCell id="WShSjZ7iAAt_4kcY2VJ5-68" value="return" style="html=1;verticalAlign=bottom;endArrow=open;dashed=1;endSize=8;exitX=0.068;exitY=0.925;rounded=0;exitDx=0;exitDy=0;exitPerimeter=0;" parent="1" source="WShSjZ7iAAt_4kcY2VJ5-66" target="WShSjZ7iAAt_4kcY2VJ5-9" edge="1">
          <mxGeometry relative="1" as="geometry">
            <mxPoint x="685" y="236" as="targetPoint" />
          </mxGeometry>
        </mxCell>
        <mxCell id="WShSjZ7iAAt_4kcY2VJ5-70" value="查询channel" style="html=1;verticalAlign=bottom;endArrow=block;rounded=0;entryX=0.068;entryY=0.463;entryDx=0;entryDy=0;entryPerimeter=0;exitX=0.911;exitY=0.121;exitDx=0;exitDy=0;exitPerimeter=0;" parent="1" source="WShSjZ7iAAt_4kcY2VJ5-17" target="WShSjZ7iAAt_4kcY2VJ5-66" edge="1">
          <mxGeometry relative="1" as="geometry">
            <mxPoint x="360" y="106" as="sourcePoint" />
            <mxPoint x="790" y="100" as="targetPoint" />
          </mxGeometry>
        </mxCell>
        <mxCell id="TEx84sVC3yWoPWmnLdWA-1" value="发送mq消息&amp;nbsp; &amp;nbsp;仿真/评测结果" style="html=1;verticalAlign=bottom;endArrow=block;rounded=0;startSize=6;endSize=6;exitX=1.016;exitY=0.813;exitDx=0;exitDy=0;exitPerimeter=0;" parent="1" source="WShSjZ7iAAt_4kcY2VJ5-34" target="WShSjZ7iAAt_4kcY2VJ5-63" edge="1">
          <mxGeometry width="80" relative="1" as="geometry">
            <mxPoint x="570" y="420" as="sourcePoint" />
            <mxPoint x="650" y="420" as="targetPoint" />
          </mxGeometry>
        </mxCell>
        <mxCell id="LzbOUSj-QeAD0FJS8F---5" value="websocket(包装同步)&amp;nbsp;" style="html=1;verticalAlign=bottom;endArrow=block;entryX=0;entryY=0;rounded=0;startSize=6;endSize=6;" parent="1" source="WShSjZ7iAAt_4kcY2VJ5-9" target="LzbOUSj-QeAD0FJS8F---4" edge="1">
          <mxGeometry x="0.1885" relative="1" as="geometry">
            <mxPoint x="370" y="600" as="sourcePoint" />
            <mxPoint as="offset" />
          </mxGeometry>
        </mxCell>
        <mxCell id="LzbOUSj-QeAD0FJS8F---6" value="return" style="html=1;verticalAlign=bottom;endArrow=open;dashed=1;endSize=8;exitX=0;exitY=0.95;rounded=0;" parent="1" source="LzbOUSj-QeAD0FJS8F---4" target="WShSjZ7iAAt_4kcY2VJ5-9" edge="1">
          <mxGeometry relative="1" as="geometry">
            <mxPoint x="370" y="676" as="targetPoint" />
          </mxGeometry>
        </mxCell>
        <mxCell id="LzbOUSj-QeAD0FJS8F---9" value="http 轮询任务状态" style="html=1;verticalAlign=bottom;endArrow=block;entryX=0;entryY=0;rounded=0;startSize=6;endSize=6;" parent="1" source="WShSjZ7iAAt_4kcY2VJ5-2" target="LzbOUSj-QeAD0FJS8F---8" edge="1">
          <mxGeometry relative="1" as="geometry">
            <mxPoint x="370" y="550" as="sourcePoint" />
          </mxGeometry>
        </mxCell>
        <mxCell id="LzbOUSj-QeAD0FJS8F---10" value="return" style="html=1;verticalAlign=bottom;endArrow=open;dashed=1;endSize=8;exitX=0;exitY=0.95;rounded=0;" parent="1" source="LzbOUSj-QeAD0FJS8F---8" target="WShSjZ7iAAt_4kcY2VJ5-2" edge="1">
          <mxGeometry relative="1" as="geometry">
            <mxPoint x="370" y="626" as="targetPoint" />
          </mxGeometry>
        </mxCell>
      </root>
    </mxGraphModel>
  </diagram>
  <diagram id="SDZFOU-aVHrFD_dtlYZ5" name="第 2 页">
    <mxGraphModel dx="1113" dy="1692" grid="1" gridSize="10" guides="1" tooltips="1" connect="1" arrows="1" fold="1" page="1" pageScale="1" pageWidth="850" pageHeight="1100" math="0" shadow="0">
      <root>
        <mxCell id="_KG9jZbXzDjlH9yBVUGl-0" />
        <mxCell id="_KG9jZbXzDjlH9yBVUGl-1" parent="_KG9jZbXzDjlH9yBVUGl-0" />
        <object placeholders="1" c4Name="channel-service" c4Type="Container" c4Application="通道服务" label="&lt;font style=&quot;font-size: 16px&quot;&gt;&lt;b&gt;&lt;div style=&quot;text-align: left&quot;&gt;%c4Name%&lt;/div&gt;&lt;/b&gt;&lt;/font&gt;&lt;div style=&quot;text-align: left&quot;&gt;[%c4Application%]&lt;/div&gt;" id="W9l1ISxlE_OnwhYrX99X-3">
          <mxCell style="rounded=1;fontSize=11;whiteSpace=wrap;html=1;dashed=1;arcSize=20;fillColor=none;strokeColor=#666666;fontColor=#333333;labelBackgroundColor=none;align=left;verticalAlign=bottom;labelBorderColor=none;spacingTop=0;spacing=10;dashPattern=8 4;metaEdit=1;rotatable=0;perimeter=rectanglePerimeter;noLabel=0;labelPadding=0;allowArrows=0;connectable=0;expand=0;recursiveResize=0;editable=1;pointerEvents=0;absoluteArcSize=1;points=[[0.25,0,0],[0.5,0,0],[0.75,0,0],[1,0.25,0],[1,0.5,0],[1,0.75,0],[0.75,1,0],[0.5,1,0],[0.25,1,0],[0,0.75,0],[0,0.5,0],[0,0.25,0]];" vertex="1" parent="_KG9jZbXzDjlH9yBVUGl-1">
            <mxGeometry x="10" y="-470" width="990" height="690" as="geometry" />
          </mxCell>
        </object>
        <object placeholders="1" c4Name="PushService" c4Type="Component: Spring Bean" c4Description="路由&amp;推送" label="&lt;font style=&quot;font-size: 16px&quot;&gt;&lt;b&gt;%c4Name%&lt;/b&gt;&lt;/font&gt;&lt;div&gt;[%c4Type%]&lt;/div&gt;&lt;br&gt;&lt;div&gt;&lt;font style=&quot;font-size: 11px&quot;&gt;&lt;font color=&quot;#cccccc&quot;&gt;%c4Description%&lt;/font&gt;&lt;/div&gt;" id="W9l1ISxlE_OnwhYrX99X-17">
          <mxCell style="rounded=1;whiteSpace=wrap;html=1;labelBackgroundColor=none;fillColor=#1061B0;fontColor=#ffffff;align=center;arcSize=10;strokeColor=#0D5091;metaEdit=1;resizable=0;points=[[0.25,0,0],[0.5,0,0],[0.75,0,0],[1,0.25,0],[1,0.5,0],[1,0.75,0],[0.75,1,0],[0.5,1,0],[0.25,1,0],[0,0.75,0],[0,0.5,0],[0,0.25,0]];" vertex="1" parent="_KG9jZbXzDjlH9yBVUGl-1">
            <mxGeometry x="370" y="-185" width="240" height="120" as="geometry" />
          </mxCell>
        </object>
        <object placeholders="1" c4Name="ConnectionService" c4Type="Component: Spring Bean" c4Description="连接管理&amp;权限管理" label="&lt;font style=&quot;font-size: 16px&quot;&gt;&lt;b&gt;%c4Name%&lt;/b&gt;&lt;/font&gt;&lt;div&gt;[%c4Type%]&lt;/div&gt;&lt;br&gt;&lt;div&gt;&lt;font style=&quot;font-size: 11px&quot;&gt;&lt;font color=&quot;#cccccc&quot;&gt;%c4Description%&lt;/font&gt;&lt;/div&gt;" id="W9l1ISxlE_OnwhYrX99X-18">
          <mxCell style="rounded=1;whiteSpace=wrap;html=1;labelBackgroundColor=none;fillColor=#1061B0;fontColor=#ffffff;align=center;arcSize=10;strokeColor=#0D5091;metaEdit=1;resizable=0;points=[[0.25,0,0],[0.5,0,0],[0.75,0,0],[1,0.25,0],[1,0.5,0],[1,0.75,0],[0.75,1,0],[0.5,1,0],[0.25,1,0],[0,0.75,0],[0,0.5,0],[0,0.25,0]];" vertex="1" parent="_KG9jZbXzDjlH9yBVUGl-1">
            <mxGeometry x="370" y="60" width="240" height="120" as="geometry" />
          </mxCell>
        </object>
        <object placeholders="1" c4Name="server" c4Type="Component: Spring Controller" c4Description="rpc服务接口" label="&lt;font style=&quot;font-size: 16px&quot;&gt;&lt;b&gt;%c4Name%&lt;/b&gt;&lt;/font&gt;&lt;div&gt;[%c4Type%]&lt;/div&gt;&lt;br&gt;&lt;div&gt;&lt;font style=&quot;font-size: 11px&quot;&gt;&lt;font color=&quot;#cccccc&quot;&gt;%c4Description%&lt;/font&gt;&lt;/div&gt;" id="W9l1ISxlE_OnwhYrX99X-20">
          <mxCell style="rounded=1;whiteSpace=wrap;html=1;labelBackgroundColor=none;fillColor=#1061B0;fontColor=#ffffff;align=center;arcSize=10;strokeColor=#0D5091;metaEdit=1;resizable=0;points=[[0.25,0,0],[0.5,0,0],[0.75,0,0],[1,0.25,0],[1,0.5,0],[1,0.75,0],[0.75,1,0],[0.5,1,0],[0.25,1,0],[0,0.75,0],[0,0.5,0],[0,0.25,0]];" vertex="1" parent="_KG9jZbXzDjlH9yBVUGl-1">
            <mxGeometry x="360" y="-410" width="240" height="120" as="geometry" />
          </mxCell>
        </object>
        <object placeholders="1" c4Name="cloud service" c4Type="Container: Java &amp; SpringBoot" c4Description="调度服务" label="&lt;font style=&quot;font-size: 16px&quot;&gt;&lt;b&gt;%c4Name%&lt;/b&gt;&lt;/font&gt;&lt;div&gt;[%c4Type%]&lt;/div&gt;&lt;br&gt;&lt;div&gt;&lt;font style=&quot;font-size: 11px&quot;&gt;&lt;font color=&quot;#cccccc&quot;&gt;%c4Description%&lt;/font&gt;&lt;/div&gt;" id="W9l1ISxlE_OnwhYrX99X-21">
          <mxCell style="rounded=1;whiteSpace=wrap;html=1;labelBackgroundColor=none;fillColor=#8C8496;fontColor=#ffffff;align=center;arcSize=10;strokeColor=#736782;metaEdit=1;resizable=0;points=[[0.25,0,0],[0.5,0,0],[0.75,0,0],[1,0.25,0],[1,0.5,0],[1,0.75,0],[0.75,1,0],[0.5,1,0],[0.25,1,0],[0,0.75,0],[0,0.5,0],[0,0.25,0]];" vertex="1" parent="_KG9jZbXzDjlH9yBVUGl-1">
            <mxGeometry x="360" y="-620" width="240" height="120" as="geometry" />
          </mxCell>
        </object>
        <mxCell id="fMAy1tNqFpR4QyeKrXCf-0" value="" style="endArrow=classic;html=1;rounded=0;startSize=6;endSize=6;entryX=0.5;entryY=0;entryDx=0;entryDy=0;entryPerimeter=0;exitX=0.5;exitY=1;exitDx=0;exitDy=0;exitPerimeter=0;" edge="1" parent="_KG9jZbXzDjlH9yBVUGl-1" source="W9l1ISxlE_OnwhYrX99X-21" target="W9l1ISxlE_OnwhYrX99X-20">
          <mxGeometry width="50" height="50" relative="1" as="geometry">
            <mxPoint x="500" y="-200" as="sourcePoint" />
            <mxPoint x="550" y="-250" as="targetPoint" />
          </mxGeometry>
        </mxCell>
        <mxCell id="fMAy1tNqFpR4QyeKrXCf-1" value="请求&lt;br&gt;[RPC]" style="edgeLabel;html=1;align=center;verticalAlign=middle;resizable=0;points=[];" vertex="1" connectable="0" parent="fMAy1tNqFpR4QyeKrXCf-0">
          <mxGeometry x="0.0923" relative="1" as="geometry">
            <mxPoint as="offset" />
          </mxGeometry>
        </mxCell>
        <mxCell id="fMAy1tNqFpR4QyeKrXCf-5" value="" style="endArrow=classic;html=1;rounded=0;startSize=6;endSize=6;exitX=0.5;exitY=1;exitDx=0;exitDy=0;exitPerimeter=0;entryX=0.5;entryY=0;entryDx=0;entryDy=0;entryPerimeter=0;" edge="1" parent="_KG9jZbXzDjlH9yBVUGl-1" source="W9l1ISxlE_OnwhYrX99X-17" target="W9l1ISxlE_OnwhYrX99X-18">
          <mxGeometry width="50" height="50" relative="1" as="geometry">
            <mxPoint x="500" y="110" as="sourcePoint" />
            <mxPoint x="550" y="60" as="targetPoint" />
          </mxGeometry>
        </mxCell>
        <mxCell id="fMAy1tNqFpR4QyeKrXCf-6" value="Uses" style="edgeLabel;html=1;align=center;verticalAlign=middle;resizable=0;points=[];" vertex="1" connectable="0" parent="fMAy1tNqFpR4QyeKrXCf-5">
          <mxGeometry x="-0.0105" y="-2" relative="1" as="geometry">
            <mxPoint as="offset" />
          </mxGeometry>
        </mxCell>
        <object placeholders="1" c4Name="agent" c4Type="Container: Python" c4Description="管控Agent" label="&lt;font style=&quot;font-size: 16px&quot;&gt;&lt;b&gt;%c4Name%&lt;/b&gt;&lt;/font&gt;&lt;div&gt;[%c4Type%]&lt;/div&gt;&lt;br&gt;&lt;div&gt;&lt;font style=&quot;font-size: 11px&quot;&gt;&lt;font color=&quot;#cccccc&quot;&gt;%c4Description%&lt;/font&gt;&lt;/div&gt;" id="fMAy1tNqFpR4QyeKrXCf-8">
          <mxCell style="rounded=1;whiteSpace=wrap;html=1;labelBackgroundColor=none;fillColor=#8C8496;fontColor=#ffffff;align=center;arcSize=10;strokeColor=#736782;metaEdit=1;resizable=0;points=[[0.25,0,0],[0.5,0,0],[0.75,0,0],[1,0.25,0],[1,0.5,0],[1,0.75,0],[0.75,1,0],[0.5,1,0],[0.25,1,0],[0,0.75,0],[0,0.5,0],[0,0.25,0]];" vertex="1" parent="_KG9jZbXzDjlH9yBVUGl-1">
            <mxGeometry x="370" y="320" width="240" height="120" as="geometry" />
          </mxCell>
        </object>
        <mxCell id="fMAy1tNqFpR4QyeKrXCf-11" value="" style="endArrow=classic;html=1;rounded=0;startSize=6;endSize=6;entryX=0.75;entryY=1;entryDx=0;entryDy=0;entryPerimeter=0;exitX=0.75;exitY=0;exitDx=0;exitDy=0;exitPerimeter=0;" edge="1" parent="_KG9jZbXzDjlH9yBVUGl-1" source="fMAy1tNqFpR4QyeKrXCf-8" target="W9l1ISxlE_OnwhYrX99X-18">
          <mxGeometry width="50" height="50" relative="1" as="geometry">
            <mxPoint x="500" y="220" as="sourcePoint" />
            <mxPoint x="840" y="190" as="targetPoint" />
          </mxGeometry>
        </mxCell>
        <mxCell id="fMAy1tNqFpR4QyeKrXCf-14" value="上报仿真结果&lt;br&gt;[websocket]" style="edgeLabel;html=1;align=center;verticalAlign=middle;resizable=0;points=[];" vertex="1" connectable="0" parent="fMAy1tNqFpR4QyeKrXCf-11">
          <mxGeometry x="-0.1687" y="-1" relative="1" as="geometry">
            <mxPoint as="offset" />
          </mxGeometry>
        </mxCell>
        <mxCell id="fMAy1tNqFpR4QyeKrXCf-12" value="" style="endArrow=classic;html=1;rounded=0;startSize=6;endSize=6;entryX=0.25;entryY=0;entryDx=0;entryDy=0;entryPerimeter=0;exitX=0.25;exitY=1;exitDx=0;exitDy=0;exitPerimeter=0;" edge="1" parent="_KG9jZbXzDjlH9yBVUGl-1" source="W9l1ISxlE_OnwhYrX99X-18" target="fMAy1tNqFpR4QyeKrXCf-8">
          <mxGeometry width="50" height="50" relative="1" as="geometry">
            <mxPoint x="460" y="210" as="sourcePoint" />
            <mxPoint x="550" y="170" as="targetPoint" />
          </mxGeometry>
        </mxCell>
        <mxCell id="fMAy1tNqFpR4QyeKrXCf-13" value="任务调度&lt;br&gt;[websocket]" style="edgeLabel;html=1;align=center;verticalAlign=middle;resizable=0;points=[];" vertex="1" connectable="0" parent="fMAy1tNqFpR4QyeKrXCf-12">
          <mxGeometry x="0.1253" y="-1" relative="1" as="geometry">
            <mxPoint as="offset" />
          </mxGeometry>
        </mxCell>
        <mxCell id="fMAy1tNqFpR4QyeKrXCf-16" value="" style="endArrow=classic;html=1;rounded=0;startSize=6;endSize=6;entryX=0;entryY=0.5;entryDx=0;entryDy=0;entryPerimeter=0;exitX=1;exitY=0.5;exitDx=0;exitDy=0;exitPerimeter=0;" edge="1" parent="_KG9jZbXzDjlH9yBVUGl-1" source="fMAy1tNqFpR4QyeKrXCf-18" target="fMAy1tNqFpR4QyeKrXCf-22">
          <mxGeometry width="50" height="50" relative="1" as="geometry">
            <mxPoint x="640" y="90" as="sourcePoint" />
            <mxPoint x="1040" y="-30" as="targetPoint" />
          </mxGeometry>
        </mxCell>
        <mxCell id="fMAy1tNqFpR4QyeKrXCf-17" value="Uses" style="edgeLabel;html=1;align=center;verticalAlign=middle;resizable=0;points=[];" vertex="1" connectable="0" parent="fMAy1tNqFpR4QyeKrXCf-16">
          <mxGeometry x="0.0107" y="-1" relative="1" as="geometry">
            <mxPoint as="offset" />
          </mxGeometry>
        </mxCell>
        <object placeholders="1" c4Name="handleService" c4Type="Component: Spring Bean" c4Description="消息处理" label="&lt;font style=&quot;font-size: 16px&quot;&gt;&lt;b&gt;%c4Name%&lt;/b&gt;&lt;/font&gt;&lt;div&gt;[%c4Type%]&lt;/div&gt;&lt;br&gt;&lt;div&gt;&lt;font style=&quot;font-size: 11px&quot;&gt;&lt;font color=&quot;#cccccc&quot;&gt;%c4Description%&lt;/font&gt;&lt;/div&gt;" id="fMAy1tNqFpR4QyeKrXCf-18">
          <mxCell style="rounded=1;whiteSpace=wrap;html=1;labelBackgroundColor=none;fillColor=#1061B0;fontColor=#ffffff;align=center;arcSize=10;strokeColor=#0D5091;metaEdit=1;resizable=0;points=[[0.25,0,0],[0.5,0,0],[0.75,0,0],[1,0.25,0],[1,0.5,0],[1,0.75,0],[0.75,1,0],[0.5,1,0],[0.25,1,0],[0,0.75,0],[0,0.5,0],[0,0.25,0]];" vertex="1" parent="_KG9jZbXzDjlH9yBVUGl-1">
            <mxGeometry x="690" y="-90" width="240" height="120" as="geometry" />
          </mxCell>
        </object>
        <mxCell id="fMAy1tNqFpR4QyeKrXCf-19" value="Uses" style="endArrow=classic;html=1;rounded=0;startSize=6;endSize=6;exitX=0.5;exitY=1;exitDx=0;exitDy=0;exitPerimeter=0;" edge="1" parent="_KG9jZbXzDjlH9yBVUGl-1" source="W9l1ISxlE_OnwhYrX99X-20">
          <mxGeometry width="50" height="50" relative="1" as="geometry">
            <mxPoint x="540" y="-130" as="sourcePoint" />
            <mxPoint x="480" y="-190" as="targetPoint" />
          </mxGeometry>
        </mxCell>
        <mxCell id="fMAy1tNqFpR4QyeKrXCf-20" value="" style="endArrow=classic;html=1;rounded=0;startSize=6;endSize=6;entryX=0;entryY=0.5;entryDx=0;entryDy=0;entryPerimeter=0;exitX=1;exitY=0.5;exitDx=0;exitDy=0;exitPerimeter=0;" edge="1" parent="_KG9jZbXzDjlH9yBVUGl-1" source="W9l1ISxlE_OnwhYrX99X-18" target="fMAy1tNqFpR4QyeKrXCf-18">
          <mxGeometry width="50" height="50" relative="1" as="geometry">
            <mxPoint x="560" y="190" as="sourcePoint" />
            <mxPoint x="610" y="140" as="targetPoint" />
          </mxGeometry>
        </mxCell>
        <mxCell id="fMAy1tNqFpR4QyeKrXCf-21" value="Uses" style="edgeLabel;html=1;align=center;verticalAlign=middle;resizable=0;points=[];" vertex="1" connectable="0" parent="fMAy1tNqFpR4QyeKrXCf-20">
          <mxGeometry x="0.0293" relative="1" as="geometry">
            <mxPoint as="offset" />
          </mxGeometry>
        </mxCell>
        <object placeholders="1" c4Name="mq" c4Type="Container: mq" c4Description="mq消息系统" label="&lt;font style=&quot;font-size: 16px&quot;&gt;&lt;b&gt;%c4Name%&lt;/b&gt;&lt;/font&gt;&lt;div&gt;[%c4Type%]&lt;/div&gt;&lt;br&gt;&lt;div&gt;&lt;font style=&quot;font-size: 11px&quot;&gt;&lt;font color=&quot;#cccccc&quot;&gt;%c4Description%&lt;/font&gt;&lt;/div&gt;" id="fMAy1tNqFpR4QyeKrXCf-22">
          <mxCell style="rounded=1;whiteSpace=wrap;html=1;labelBackgroundColor=none;fillColor=#8C8496;fontColor=#ffffff;align=center;arcSize=10;strokeColor=#736782;metaEdit=1;resizable=0;points=[[0.25,0,0],[0.5,0,0],[0.75,0,0],[1,0.25,0],[1,0.5,0],[1,0.75,0],[0.75,1,0],[0.5,1,0],[0.25,1,0],[0,0.75,0],[0,0.5,0],[0,0.25,0]];" vertex="1" parent="_KG9jZbXzDjlH9yBVUGl-1">
            <mxGeometry x="1040" y="-90" width="240" height="120" as="geometry" />
          </mxCell>
        </object>
        <object placeholders="1" c4Name="Redis" c4Type="Container: Redis" c4Description="缓存服务" label="&lt;font style=&quot;font-size: 16px&quot;&gt;&lt;b&gt;%c4Name%&lt;/b&gt;&lt;/font&gt;&lt;div&gt;[%c4Type%]&lt;/div&gt;&lt;br&gt;&lt;div&gt;&lt;font style=&quot;font-size: 11px&quot;&gt;&lt;font color=&quot;#cccccc&quot;&gt;%c4Description%&lt;/font&gt;&lt;/div&gt;" id="QZvN3XNg1lSxwmUP-YPt-0">
          <mxCell style="rounded=1;whiteSpace=wrap;html=1;labelBackgroundColor=none;fillColor=#8C8496;fontColor=#ffffff;align=center;arcSize=10;strokeColor=#736782;metaEdit=1;resizable=0;points=[[0.25,0,0],[0.5,0,0],[0.75,0,0],[1,0.25,0],[1,0.5,0],[1,0.75,0],[0.75,1,0],[0.5,1,0],[0.25,1,0],[0,0.75,0],[0,0.5,0],[0,0.25,0]];" vertex="1" parent="_KG9jZbXzDjlH9yBVUGl-1">
            <mxGeometry x="1040" y="-240" width="240" height="120" as="geometry" />
          </mxCell>
        </object>
        <mxCell id="QZvN3XNg1lSxwmUP-YPt-1" value="" style="endArrow=classic;html=1;rounded=0;startSize=6;endSize=6;entryX=0;entryY=0.5;entryDx=0;entryDy=0;entryPerimeter=0;exitX=1;exitY=0.5;exitDx=0;exitDy=0;exitPerimeter=0;" edge="1" parent="_KG9jZbXzDjlH9yBVUGl-1" source="W9l1ISxlE_OnwhYrX99X-17" target="QZvN3XNg1lSxwmUP-YPt-0">
          <mxGeometry width="50" height="50" relative="1" as="geometry">
            <mxPoint x="750" y="-50" as="sourcePoint" />
            <mxPoint x="800" y="-100" as="targetPoint" />
          </mxGeometry>
        </mxCell>
        <mxCell id="QZvN3XNg1lSxwmUP-YPt-2" value="Uses" style="edgeLabel;html=1;align=center;verticalAlign=middle;resizable=0;points=[];" vertex="1" connectable="0" parent="QZvN3XNg1lSxwmUP-YPt-1">
          <mxGeometry x="-0.0253" y="2" relative="1" as="geometry">
            <mxPoint as="offset" />
          </mxGeometry>
        </mxCell>
        <object placeholders="1" c4Name="facade" c4Type="Component: Spring Controller" c4Description="Http服务出口" label="&lt;font style=&quot;font-size: 16px&quot;&gt;&lt;b&gt;%c4Name%&lt;/b&gt;&lt;/font&gt;&lt;div&gt;[%c4Type%]&lt;/div&gt;&lt;br&gt;&lt;div&gt;&lt;font style=&quot;font-size: 11px&quot;&gt;&lt;font color=&quot;#cccccc&quot;&gt;%c4Description%&lt;/font&gt;&lt;/div&gt;" id="QZvN3XNg1lSxwmUP-YPt-3">
          <mxCell style="rounded=1;whiteSpace=wrap;html=1;labelBackgroundColor=none;fillColor=#1061B0;fontColor=#ffffff;align=center;arcSize=10;strokeColor=#0D5091;metaEdit=1;resizable=0;points=[[0.25,0,0],[0.5,0,0],[0.75,0,0],[1,0.25,0],[1,0.5,0],[1,0.75,0],[0.75,1,0],[0.5,1,0],[0.25,1,0],[0,0.75,0],[0,0.5,0],[0,0.25,0]];" vertex="1" parent="_KG9jZbXzDjlH9yBVUGl-1">
            <mxGeometry x="60" y="-410" width="240" height="120" as="geometry" />
          </mxCell>
        </object>
        <mxCell id="QZvN3XNg1lSxwmUP-YPt-4" value="" style="endArrow=classic;html=1;rounded=0;startSize=6;endSize=6;entryX=0;entryY=0.5;entryDx=0;entryDy=0;entryPerimeter=0;exitX=0.5;exitY=1;exitDx=0;exitDy=0;exitPerimeter=0;" edge="1" parent="_KG9jZbXzDjlH9yBVUGl-1" source="QZvN3XNg1lSxwmUP-YPt-3" target="W9l1ISxlE_OnwhYrX99X-17">
          <mxGeometry width="50" height="50" relative="1" as="geometry">
            <mxPoint x="440" y="-120" as="sourcePoint" />
            <mxPoint x="490" y="-170" as="targetPoint" />
          </mxGeometry>
        </mxCell>
        <mxCell id="QZvN3XNg1lSxwmUP-YPt-7" value="Uses" style="edgeLabel;html=1;align=center;verticalAlign=middle;resizable=0;points=[];" vertex="1" connectable="0" parent="QZvN3XNg1lSxwmUP-YPt-4">
          <mxGeometry x="-0.2024" y="1" relative="1" as="geometry">
            <mxPoint as="offset" />
          </mxGeometry>
        </mxCell>
        <mxCell id="QZvN3XNg1lSxwmUP-YPt-5" value="" style="endArrow=classic;html=1;rounded=0;startSize=6;endSize=6;exitX=0.25;exitY=1;exitDx=0;exitDy=0;exitPerimeter=0;entryX=0.5;entryY=0;entryDx=0;entryDy=0;entryPerimeter=0;" edge="1" parent="_KG9jZbXzDjlH9yBVUGl-1" source="W9l1ISxlE_OnwhYrX99X-21" target="QZvN3XNg1lSxwmUP-YPt-3">
          <mxGeometry width="50" height="50" relative="1" as="geometry">
            <mxPoint x="440" y="-380" as="sourcePoint" />
            <mxPoint x="490" y="-430" as="targetPoint" />
          </mxGeometry>
        </mxCell>
        <mxCell id="QZvN3XNg1lSxwmUP-YPt-6" value="请求&lt;br&gt;[HTTP]" style="edgeLabel;html=1;align=center;verticalAlign=middle;resizable=0;points=[];" vertex="1" connectable="0" parent="QZvN3XNg1lSxwmUP-YPt-5">
          <mxGeometry x="0.3127" y="-1" relative="1" as="geometry">
            <mxPoint as="offset" />
          </mxGeometry>
        </mxCell>
      </root>
    </mxGraphModel>
  </diagram>
  <diagram id="8ybU64GWRdI7aLrXRs49" name="第 3 页">
    <mxGraphModel dx="996" dy="1629" grid="1" gridSize="10" guides="1" tooltips="1" connect="1" arrows="1" fold="1" page="1" pageScale="1" pageWidth="850" pageHeight="1100" math="0" shadow="0">
      <root>
        <mxCell id="KI1oXDr5LT7Th_vi-DM1-0" />
        <mxCell id="KI1oXDr5LT7Th_vi-DM1-1" parent="KI1oXDr5LT7Th_vi-DM1-0" />
        <object placeholders="1" c4Name="simulation-task-service" c4Type="Component: package" c4Description="定时轮询&amp;仿真下发" label="&lt;font style=&quot;font-size: 16px&quot;&gt;&lt;b&gt;%c4Name%&lt;/b&gt;&lt;/font&gt;&lt;div&gt;[%c4Type%]&lt;/div&gt;&lt;br&gt;&lt;div&gt;&lt;font style=&quot;font-size: 11px&quot;&gt;&lt;font color=&quot;#cccccc&quot;&gt;%c4Description%&lt;/font&gt;&lt;/div&gt;" id="ClSZ7VDpRHEIGhQH-xuT-0">
          <mxCell style="rounded=1;whiteSpace=wrap;html=1;labelBackgroundColor=none;fillColor=#1061B0;fontColor=#ffffff;align=center;arcSize=10;strokeColor=#0D5091;metaEdit=1;resizable=0;points=[[0.25,0,0],[0.5,0,0],[0.75,0,0],[1,0.25,0],[1,0.5,0],[1,0.75,0],[0.75,1,0],[0.5,1,0],[0.25,1,0],[0,0.75,0],[0,0.5,0],[0,0.25,0]];" vertex="1" parent="KI1oXDr5LT7Th_vi-DM1-1">
            <mxGeometry x="480" y="150" width="240" height="120" as="geometry" />
          </mxCell>
        </object>
        <object placeholders="1" c4Name="Agent" c4Type="Container: Python" c4Application="管控Agent" label="&lt;font style=&quot;font-size: 16px&quot;&gt;&lt;b&gt;&lt;div style=&quot;text-align: left&quot;&gt;%c4Name%&lt;/div&gt;&lt;/b&gt;&lt;/font&gt;&lt;div style=&quot;text-align: left&quot;&gt;[%c4Application%]&lt;/div&gt;" id="_j7g-Hf4wzB0zJztA7ZN-0">
          <mxCell style="rounded=1;fontSize=11;whiteSpace=wrap;html=1;dashed=1;arcSize=20;fillColor=none;strokeColor=#666666;fontColor=#333333;labelBackgroundColor=none;align=left;verticalAlign=bottom;labelBorderColor=none;spacingTop=0;spacing=10;dashPattern=8 4;metaEdit=1;rotatable=0;perimeter=rectanglePerimeter;noLabel=0;labelPadding=0;allowArrows=0;connectable=0;expand=0;recursiveResize=0;editable=1;pointerEvents=0;absoluteArcSize=1;points=[[0.25,0,0],[0.5,0,0],[0.75,0,0],[1,0.25,0],[1,0.5,0],[1,0.75,0],[0.75,1,0],[0.5,1,0],[0.25,1,0],[0,0.75,0],[0,0.5,0],[0,0.25,0]];" vertex="1" parent="KI1oXDr5LT7Th_vi-DM1-1">
            <mxGeometry x="30" y="-100" width="1060" height="490" as="geometry" />
          </mxCell>
        </object>
        <object placeholders="1" c4Name="Agent" c4Type="Container: Python" c4Description="Agent" label="&lt;font style=&quot;font-size: 16px&quot;&gt;&lt;b&gt;%c4Name%&lt;/b&gt;&lt;/font&gt;&lt;div&gt;[%c4Type%]&lt;/div&gt;&lt;br&gt;&lt;div&gt;&lt;font style=&quot;font-size: 11px&quot;&gt;&lt;font color=&quot;#cccccc&quot;&gt;%c4Description%&lt;/font&gt;&lt;/div&gt;" id="zXk8BwOZyY3tYKeX7qxL-1">
          <mxCell style="rounded=1;whiteSpace=wrap;html=1;labelBackgroundColor=none;fillColor=#8C8496;fontColor=#ffffff;align=center;arcSize=10;strokeColor=#736782;metaEdit=1;resizable=0;points=[[0.25,0,0],[0.5,0,0],[0.75,0,0],[1,0.25,0],[1,0.5,0],[1,0.75,0],[0.75,1,0],[0.5,1,0],[0.25,1,0],[0,0.75,0],[0,0.5,0],[0,0.25,0]];" vertex="1" parent="KI1oXDr5LT7Th_vi-DM1-1">
            <mxGeometry x="540" y="450" width="240" height="120" as="geometry" />
          </mxCell>
        </object>
        <object placeholders="1" c4Name="simulation-message-service" c4Type="Component: package" c4Description="消息管理" label="&lt;font style=&quot;font-size: 16px&quot;&gt;&lt;b&gt;%c4Name%&lt;/b&gt;&lt;/font&gt;&lt;div&gt;[%c4Type%]&lt;/div&gt;&lt;br&gt;&lt;div&gt;&lt;font style=&quot;font-size: 11px&quot;&gt;&lt;font color=&quot;#cccccc&quot;&gt;%c4Description%&lt;/font&gt;&lt;/div&gt;" id="zXk8BwOZyY3tYKeX7qxL-2">
          <mxCell style="rounded=1;whiteSpace=wrap;html=1;labelBackgroundColor=none;fillColor=#1061B0;fontColor=#ffffff;align=center;arcSize=10;strokeColor=#0D5091;metaEdit=1;resizable=0;points=[[0.25,0,0],[0.5,0,0],[0.75,0,0],[1,0.25,0],[1,0.5,0],[1,0.75,0],[0.75,1,0],[0.5,1,0],[0.25,1,0],[0,0.75,0],[0,0.5,0],[0,0.25,0]];" vertex="1" parent="KI1oXDr5LT7Th_vi-DM1-1">
            <mxGeometry x="580" y="-50" width="240" height="120" as="geometry" />
          </mxCell>
        </object>
        <object placeholders="1" c4Name="channel-service" c4Type="Container: Java&amp;SpringBoot" c4Description="通道服务" label="&lt;font style=&quot;font-size: 16px&quot;&gt;&lt;b&gt;%c4Name%&lt;/b&gt;&lt;/font&gt;&lt;div&gt;[%c4Type%]&lt;/div&gt;&lt;br&gt;&lt;div&gt;&lt;font style=&quot;font-size: 11px&quot;&gt;&lt;font color=&quot;#cccccc&quot;&gt;%c4Description%&lt;/font&gt;&lt;/div&gt;" id="zXk8BwOZyY3tYKeX7qxL-4">
          <mxCell style="rounded=1;whiteSpace=wrap;html=1;labelBackgroundColor=none;fillColor=#8C8496;fontColor=#ffffff;align=center;arcSize=10;strokeColor=#736782;metaEdit=1;resizable=0;points=[[0.25,0,0],[0.5,0,0],[0.75,0,0],[1,0.25,0],[1,0.5,0],[1,0.75,0],[0.75,1,0],[0.5,1,0],[0.25,1,0],[0,0.75,0],[0,0.5,0],[0,0.25,0]];" vertex="1" parent="KI1oXDr5LT7Th_vi-DM1-1">
            <mxGeometry x="580" y="-290" width="240" height="120" as="geometry" />
          </mxCell>
        </object>
        <mxCell id="zXk8BwOZyY3tYKeX7qxL-5" value="" style="endArrow=classic;html=1;rounded=0;startSize=6;endSize=6;entryX=0.75;entryY=1;entryDx=0;entryDy=0;entryPerimeter=0;exitX=0.75;exitY=0;exitDx=0;exitDy=0;exitPerimeter=0;" edge="1" parent="KI1oXDr5LT7Th_vi-DM1-1" source="zXk8BwOZyY3tYKeX7qxL-2" target="zXk8BwOZyY3tYKeX7qxL-4">
          <mxGeometry width="50" height="50" relative="1" as="geometry">
            <mxPoint x="400" y="180" as="sourcePoint" />
            <mxPoint x="450" y="130" as="targetPoint" />
          </mxGeometry>
        </mxCell>
        <mxCell id="zXk8BwOZyY3tYKeX7qxL-8" value="[websocket]" style="edgeLabel;html=1;align=center;verticalAlign=middle;resizable=0;points=[];" vertex="1" connectable="0" parent="zXk8BwOZyY3tYKeX7qxL-5">
          <mxGeometry x="0.3765" y="2" relative="1" as="geometry">
            <mxPoint as="offset" />
          </mxGeometry>
        </mxCell>
        <mxCell id="zXk8BwOZyY3tYKeX7qxL-6" value="" style="endArrow=classic;html=1;rounded=0;startSize=6;endSize=6;entryX=0.25;entryY=0;entryDx=0;entryDy=0;entryPerimeter=0;exitX=0.25;exitY=1;exitDx=0;exitDy=0;exitPerimeter=0;" edge="1" parent="KI1oXDr5LT7Th_vi-DM1-1" source="zXk8BwOZyY3tYKeX7qxL-4" target="zXk8BwOZyY3tYKeX7qxL-2">
          <mxGeometry width="50" height="50" relative="1" as="geometry">
            <mxPoint x="180" y="-60" as="sourcePoint" />
            <mxPoint x="450" y="60" as="targetPoint" />
          </mxGeometry>
        </mxCell>
        <mxCell id="zXk8BwOZyY3tYKeX7qxL-7" value="[websocket]" style="edgeLabel;html=1;align=center;verticalAlign=middle;resizable=0;points=[];" vertex="1" connectable="0" parent="zXk8BwOZyY3tYKeX7qxL-6">
          <mxGeometry x="-0.2824" y="2" relative="1" as="geometry">
            <mxPoint x="-2" y="-1" as="offset" />
          </mxGeometry>
        </mxCell>
        <object placeholders="1" c4Name="simulation-callback-service" c4Type="Component: package" c4Description="仿真结果回调" label="&lt;font style=&quot;font-size: 16px&quot;&gt;&lt;b&gt;%c4Name%&lt;/b&gt;&lt;/font&gt;&lt;div&gt;[%c4Type%]&lt;/div&gt;&lt;br&gt;&lt;div&gt;&lt;font style=&quot;font-size: 11px&quot;&gt;&lt;font color=&quot;#cccccc&quot;&gt;%c4Description%&lt;/font&gt;&lt;/div&gt;" id="zXk8BwOZyY3tYKeX7qxL-9">
          <mxCell style="rounded=1;whiteSpace=wrap;html=1;labelBackgroundColor=none;fillColor=#1061B0;fontColor=#ffffff;align=center;arcSize=10;strokeColor=#0D5091;metaEdit=1;resizable=0;points=[[0.25,0,0],[0.5,0,0],[0.75,0,0],[1,0.25,0],[1,0.5,0],[1,0.75,0],[0.75,1,0],[0.5,1,0],[0.25,1,0],[0,0.75,0],[0,0.5,0],[0,0.25,0]];" vertex="1" parent="KI1oXDr5LT7Th_vi-DM1-1">
            <mxGeometry x="760" y="150" width="240" height="120" as="geometry" />
          </mxCell>
        </object>
        <mxCell id="zXk8BwOZyY3tYKeX7qxL-10" value="" style="endArrow=classic;html=1;rounded=0;startSize=6;endSize=6;exitX=0.25;exitY=1;exitDx=0;exitDy=0;exitPerimeter=0;entryX=0.5;entryY=0;entryDx=0;entryDy=0;entryPerimeter=0;" edge="1" parent="KI1oXDr5LT7Th_vi-DM1-1" source="zXk8BwOZyY3tYKeX7qxL-2" target="ClSZ7VDpRHEIGhQH-xuT-0">
          <mxGeometry width="50" height="50" relative="1" as="geometry">
            <mxPoint x="400" y="300" as="sourcePoint" />
            <mxPoint x="450" y="250" as="targetPoint" />
          </mxGeometry>
        </mxCell>
        <mxCell id="zXk8BwOZyY3tYKeX7qxL-11" value="Uses" style="edgeLabel;html=1;align=center;verticalAlign=middle;resizable=0;points=[];" vertex="1" connectable="0" parent="zXk8BwOZyY3tYKeX7qxL-10">
          <mxGeometry x="-0.0322" y="2" relative="1" as="geometry">
            <mxPoint as="offset" />
          </mxGeometry>
        </mxCell>
        <mxCell id="zXk8BwOZyY3tYKeX7qxL-12" value="" style="endArrow=classic;html=1;rounded=0;startSize=6;endSize=6;exitX=0.5;exitY=0;exitDx=0;exitDy=0;exitPerimeter=0;entryX=0.75;entryY=1;entryDx=0;entryDy=0;entryPerimeter=0;" edge="1" parent="KI1oXDr5LT7Th_vi-DM1-1" source="zXk8BwOZyY3tYKeX7qxL-9" target="zXk8BwOZyY3tYKeX7qxL-2">
          <mxGeometry width="50" height="50" relative="1" as="geometry">
            <mxPoint x="400" y="300" as="sourcePoint" />
            <mxPoint x="450" y="250" as="targetPoint" />
          </mxGeometry>
        </mxCell>
        <mxCell id="zXk8BwOZyY3tYKeX7qxL-13" value="Uses" style="edgeLabel;html=1;align=center;verticalAlign=middle;resizable=0;points=[];" vertex="1" connectable="0" parent="zXk8BwOZyY3tYKeX7qxL-12">
          <mxGeometry x="-0.0466" y="1" relative="1" as="geometry">
            <mxPoint as="offset" />
          </mxGeometry>
        </mxCell>
        <mxCell id="zXk8BwOZyY3tYKeX7qxL-16" value="轮询结果&amp;amp;仿真下发&lt;br&gt;[http]" style="endArrow=classic;html=1;rounded=0;startSize=6;endSize=6;exitX=0.5;exitY=1;exitDx=0;exitDy=0;exitPerimeter=0;entryX=0.5;entryY=0;entryDx=0;entryDy=0;entryPerimeter=0;" edge="1" parent="KI1oXDr5LT7Th_vi-DM1-1" source="ClSZ7VDpRHEIGhQH-xuT-0" target="zXk8BwOZyY3tYKeX7qxL-1">
          <mxGeometry width="50" height="50" relative="1" as="geometry">
            <mxPoint x="400" y="420" as="sourcePoint" />
            <mxPoint x="450" y="370" as="targetPoint" />
          </mxGeometry>
        </mxCell>
        <mxCell id="zXk8BwOZyY3tYKeX7qxL-17" value="" style="endArrow=classic;html=1;rounded=0;startSize=6;endSize=6;exitX=0.75;exitY=0;exitDx=0;exitDy=0;exitPerimeter=0;entryX=0.5;entryY=1;entryDx=0;entryDy=0;entryPerimeter=0;" edge="1" parent="KI1oXDr5LT7Th_vi-DM1-1" source="zXk8BwOZyY3tYKeX7qxL-1" target="zXk8BwOZyY3tYKeX7qxL-9">
          <mxGeometry width="50" height="50" relative="1" as="geometry">
            <mxPoint x="400" y="420" as="sourcePoint" />
            <mxPoint x="450" y="370" as="targetPoint" />
          </mxGeometry>
        </mxCell>
        <mxCell id="zXk8BwOZyY3tYKeX7qxL-18" value="仿真结果回调&lt;br&gt;[http]" style="edgeLabel;html=1;align=center;verticalAlign=middle;resizable=0;points=[];" vertex="1" connectable="0" parent="zXk8BwOZyY3tYKeX7qxL-17">
          <mxGeometry x="0.0067" y="-1" relative="1" as="geometry">
            <mxPoint as="offset" />
          </mxGeometry>
        </mxCell>
        <object placeholders="1" c4Name="simulation-flask-controller" c4Type="Component: package" c4Description="http出口服务" label="&lt;font style=&quot;font-size: 16px&quot;&gt;&lt;b&gt;%c4Name%&lt;/b&gt;&lt;/font&gt;&lt;div&gt;[%c4Type%]&lt;/div&gt;&lt;br&gt;&lt;div&gt;&lt;font style=&quot;font-size: 11px&quot;&gt;&lt;font color=&quot;#cccccc&quot;&gt;%c4Description%&lt;/font&gt;&lt;/div&gt;" id="2mAqOPLlrpuPrOq0myi1-2">
          <mxCell style="rounded=1;whiteSpace=wrap;html=1;labelBackgroundColor=none;fillColor=#1061B0;fontColor=#ffffff;align=center;arcSize=10;strokeColor=#0D5091;metaEdit=1;resizable=0;points=[[0.25,0,0],[0.5,0,0],[0.75,0,0],[1,0.25,0],[1,0.5,0],[1,0.75,0],[0.75,1,0],[0.5,1,0],[0.25,1,0],[0,0.75,0],[0,0.5,0],[0,0.25,0]];" vertex="1" parent="KI1oXDr5LT7Th_vi-DM1-1">
            <mxGeometry x="110" y="-50" width="240" height="120" as="geometry" />
          </mxCell>
        </object>
        <object placeholders="1" c4Name="simulation-service-old" c4Type="Component: package" c4Description="部署&amp;仿真&amp;查询" label="&lt;font style=&quot;font-size: 16px&quot;&gt;&lt;b&gt;%c4Name%&lt;/b&gt;&lt;/font&gt;&lt;div&gt;[%c4Type%]&lt;/div&gt;&lt;br&gt;&lt;div&gt;&lt;font style=&quot;font-size: 11px&quot;&gt;&lt;font color=&quot;#cccccc&quot;&gt;%c4Description%&lt;/font&gt;&lt;/div&gt;" id="2mAqOPLlrpuPrOq0myi1-3">
          <mxCell style="rounded=1;whiteSpace=wrap;html=1;labelBackgroundColor=none;fillColor=#1061B0;fontColor=#ffffff;align=center;arcSize=10;strokeColor=#0D5091;metaEdit=1;resizable=0;points=[[0.25,0,0],[0.5,0,0],[0.75,0,0],[1,0.25,0],[1,0.5,0],[1,0.75,0],[0.75,1,0],[0.5,1,0],[0.25,1,0],[0,0.75,0],[0,0.5,0],[0,0.25,0]];" vertex="1" parent="KI1oXDr5LT7Th_vi-DM1-1">
            <mxGeometry x="110" y="150" width="240" height="120" as="geometry" />
          </mxCell>
        </object>
        <mxCell id="2mAqOPLlrpuPrOq0myi1-4" value="" style="endArrow=classic;html=1;rounded=0;startSize=6;endSize=6;exitX=0.5;exitY=1;exitDx=0;exitDy=0;exitPerimeter=0;" edge="1" parent="KI1oXDr5LT7Th_vi-DM1-1" source="2mAqOPLlrpuPrOq0myi1-2" target="2mAqOPLlrpuPrOq0myi1-3">
          <mxGeometry width="50" height="50" relative="1" as="geometry">
            <mxPoint x="410" y="300" as="sourcePoint" />
            <mxPoint x="460" y="250" as="targetPoint" />
          </mxGeometry>
        </mxCell>
        <mxCell id="2mAqOPLlrpuPrOq0myi1-9" value="Uses" style="edgeLabel;html=1;align=center;verticalAlign=middle;resizable=0;points=[];" vertex="1" connectable="0" parent="2mAqOPLlrpuPrOq0myi1-4">
          <mxGeometry x="-0.2382" y="2" relative="1" as="geometry">
            <mxPoint as="offset" />
          </mxGeometry>
        </mxCell>
        <mxCell id="2mAqOPLlrpuPrOq0myi1-7" value="" style="endArrow=classic;html=1;rounded=0;startSize=6;endSize=6;exitX=0.5;exitY=1;exitDx=0;exitDy=0;exitPerimeter=0;entryX=0.5;entryY=0;entryDx=0;entryDy=0;entryPerimeter=0;" edge="1" parent="KI1oXDr5LT7Th_vi-DM1-1" source="2mAqOPLlrpuPrOq0myi1-3" target="2mAqOPLlrpuPrOq0myi1-14">
          <mxGeometry width="50" height="50" relative="1" as="geometry">
            <mxPoint x="410" y="460" as="sourcePoint" />
            <mxPoint x="230" y="440" as="targetPoint" />
          </mxGeometry>
        </mxCell>
        <mxCell id="2mAqOPLlrpuPrOq0myi1-8" value="仿真&lt;br&gt;[SDK]" style="edgeLabel;html=1;align=center;verticalAlign=middle;resizable=0;points=[];" vertex="1" connectable="0" parent="2mAqOPLlrpuPrOq0myi1-7">
          <mxGeometry x="-0.1145" relative="1" as="geometry">
            <mxPoint as="offset" />
          </mxGeometry>
        </mxCell>
        <mxCell id="2mAqOPLlrpuPrOq0myi1-12" value="" style="endArrow=classic;html=1;rounded=0;startSize=6;endSize=6;exitX=0;exitY=0.5;exitDx=0;exitDy=0;exitPerimeter=0;" edge="1" parent="KI1oXDr5LT7Th_vi-DM1-1" source="ClSZ7VDpRHEIGhQH-xuT-0" target="2mAqOPLlrpuPrOq0myi1-3">
          <mxGeometry width="50" height="50" relative="1" as="geometry">
            <mxPoint x="580" y="390" as="sourcePoint" />
            <mxPoint x="630" y="340" as="targetPoint" />
          </mxGeometry>
        </mxCell>
        <mxCell id="2mAqOPLlrpuPrOq0myi1-13" value="Uses" style="edgeLabel;html=1;align=center;verticalAlign=middle;resizable=0;points=[];" vertex="1" connectable="0" parent="2mAqOPLlrpuPrOq0myi1-12">
          <mxGeometry x="0.1854" y="1" relative="1" as="geometry">
            <mxPoint as="offset" />
          </mxGeometry>
        </mxCell>
        <object placeholders="1" c4Name="Agent" c4Type="Container: C" c4Description="cyberRT" label="&lt;font style=&quot;font-size: 16px&quot;&gt;&lt;b&gt;%c4Name%&lt;/b&gt;&lt;/font&gt;&lt;div&gt;[%c4Type%]&lt;/div&gt;&lt;br&gt;&lt;div&gt;&lt;font style=&quot;font-size: 11px&quot;&gt;&lt;font color=&quot;#cccccc&quot;&gt;%c4Description%&lt;/font&gt;&lt;/div&gt;" id="2mAqOPLlrpuPrOq0myi1-14">
          <mxCell style="rounded=1;whiteSpace=wrap;html=1;labelBackgroundColor=none;fillColor=#8C8496;fontColor=#ffffff;align=center;arcSize=10;strokeColor=#736782;metaEdit=1;resizable=0;points=[[0.25,0,0],[0.5,0,0],[0.75,0,0],[1,0.25,0],[1,0.5,0],[1,0.75,0],[0.75,1,0],[0.5,1,0],[0.25,1,0],[0,0.75,0],[0,0.5,0],[0,0.25,0]];" vertex="1" parent="KI1oXDr5LT7Th_vi-DM1-1">
            <mxGeometry x="110" y="450" width="240" height="120" as="geometry" />
          </mxCell>
        </object>
      </root>
    </mxGraphModel>
  </diagram>
</mxfile>
